<?xml version="1.0" encoding="UTF-8" standalone="no"?>
<svg
   xmlns:dc="http://purl.org/dc/elements/1.1/"
   xmlns:cc="http://creativecommons.org/ns#"
   xmlns:rdf="http://www.w3.org/1999/02/22-rdf-syntax-ns#"
   xmlns:svg="http://www.w3.org/2000/svg"
   xmlns="http://www.w3.org/2000/svg"
   xmlns:sodipodi="http://sodipodi.sourceforge.net/DTD/sodipodi-0.dtd"
   xmlns:inkscape="http://www.inkscape.org/namespaces/inkscape"
   inkscape:version="1.0 (4035a4fb49, 2020-05-01)"
   sodipodi:docname="logo-white.svg"
   id="svg8"
   version="1.1"
   height="39"
   width="240">
  <metadata
     id="metadata14">
    <rdf:RDF>
      <cc:Work
         rdf:about="">
        <dc:format>image/svg+xml</dc:format>
        <dc:type
           rdf:resource="http://purl.org/dc/dcmitype/StillImage" />
        <dc:title></dc:title>
      </cc:Work>
    </rdf:RDF>
  </metadata>
  <defs
     id="defs12" />
  <sodipodi:namedview
     inkscape:current-layer="svg8"
     inkscape:window-maximized="1"
     inkscape:window-y="-11"
     inkscape:window-x="-11"
     inkscape:cy="18.732409"
     inkscape:cx="120"
     inkscape:zoom="5.8625"
     showgrid="false"
     id="namedview10"
     inkscape:window-height="986"
     inkscape:window-width="1920"
     inkscape:pageshadow="2"
     inkscape:pageopacity="0"
     guidetolerance="10"
     gridtolerance="10"
     objecttolerance="10"
     borderopacity="1"
     bordercolor="#666666"
     pagecolor="#ffffff" />
  <g
     id="g6"
     fill="none"
     fill-rule="nonzero">
    <path
       id="path2"
       fill="#FF52C1"
       d="M27.967.879C20.242.875 12.182 2.615 4.047 4.872c-1.033.208-2.041.884-2.574 1.72C.983 7.38.805 8.171.652 9c-.79 4.428-.694 8.776-.53 13.594.036 1.103.2 2.41.715 3.205.538.803 1.46 1.313 2.561 1.48a95.99 95.99 0 0 0 4.232.525l-.312 8.698c-.048.692.29 1.267.71 1.598.376.286.795.413 1.225.445.86.065 1.869-.303 2.37-1.257 2.195-4.224 3.572-6.089 6.317-8.895 7.158.176 13.407-.222 20.482-.745 2.501-.065 4.218-2.11 4.672-3.743 1.357-4.232 1.568-9.456 1.712-14.737.061-2.093-.665-4.148-1.95-5.234-1.222-.991-2.702-1.35-4.058-1.718C35.031 1.363 31.263.905 27.967.879zm10.29 3.31c1.358.369 2.555.724 3.31 1.337 1.26 1.339 1.218 2.23 1.2 3.675-.142 5.122-.388 10.093-1.544 13.86-.498 1.405-1.366 2.405-3.006 2.556-7.208.533-13.462.945-20.707.739a1.032 1.032 0 0 0-.763.302c-3.044 3.074-4.601 5.21-6.921 9.676-.054.102-.171.164-.315.175-.097-.005-.136-.08-.142-.148l.314-9.432c.019-.509-.401-.995-.907-1.05a95.48 95.48 0 0 1-5.06-.62c-.726-.111-.994-.31-1.193-.606-.346-.825-.338-1.335-.365-2.128-.162-4.775-.242-8.948.491-13.1.068-.614.298-1.242.542-1.767.404-.632 1.023-.725 1.644-.897 7.956-2.197 15.74-3.84 23.068-3.845 3.592.13 7.364.49 10.354 1.273zm-27.479 8.09c-1.096 1.313-.987 3.096-.14 4.29.442.625 1.132 1.128 1.972 1.242 1.091.09 1.783-.352 2.53-.86 1.353-1.176 1.49-3.228.461-4.71-.524-.755-1.362-1.208-2.218-1.24-1.172.012-1.968.535-2.605 1.277zm11.856-1.072c-1.092.035-1.975.791-2.514 1.607-.617.933-.977 2.101-.478 3.246.96 2.203 4.277 2.176 5.6-.063.61-1.032.454-2.205 0-3.056-.452-.85-1.136-1.543-2.131-1.702a2.494 2.494 0 0 0-.477-.032zm9.625.207c-.34-.008-.69.024-1.018.111-1.312.35-2.429 1.704-2.26 3.437.086.872.487 1.722 1.21 2.308.723.585 1.773.847 2.88.62 1.272-.26 2.06-1.285 2.323-2.275.263-.99.197-1.999-.414-2.817a3.47 3.47 0 0 0-2.72-1.384zm-18.965 1.623c.245.002.438.08.637.366.445.642.321 1.615-.128 2.005-.447.39-.726.424-.922.398-.196-.027-.395-.162-.573-.414-.34-.48-.44-1.256.007-1.81.238-.316.675-.513.98-.545zm9.483.223c.038.006.464.253.668.636.204.383.242.739.048 1.066-.577.976-1.804.712-1.99.287-.07-.162-.017-.813.32-1.32.335-.509.757-.7.954-.67zm10.564.748c.062.083.213.64.096 1.082-.118.442-.31.715-.78.811-.602.124-.94 0-1.193-.207-.254-.205-.425-.552-.462-.923-.09-.92.24-1.133.764-1.273.61-.15 1.3.112 1.575.51z" />
    <path
       id="path4"
       fill="#00252E"
       d="M57.61 4.996c.016-.26.111-.494.287-.701a.875.875 0 0 1 .701-.31h6.826c.23 0 .467.096.712.287a.883.883 0 0 1 .368.724v10.893h11.421V4.996c0-.276.096-.513.287-.712.192-.2.44-.3.747-.3h6.734c.306 0 .574.077.804.23.23.154.345.399.345.736V37.1c0 .337-.1.59-.3.758-.198.169-.459.253-.78.253h-6.803c-.306 0-.555-.084-.747-.253-.191-.168-.287-.42-.287-.758V24.047H66.504V37.1c0 .322-.104.57-.31.747-.207.176-.487.264-.84.264h-6.756c-.643 0-.972-.299-.988-.896V4.996zm62.875 32.725c-.199.168-.41.275-.632.321a3.123 3.123 0 0 1-.631.07h-3.47c-.276 0-.514-.05-.713-.15-.2-.1-.368-.234-.506-.402a2.384 2.384 0 0 1-.344-.575 4.884 4.884 0 0 1-.23-.666l-.712-2.942c-.23.475-.563 1.015-1 1.62a8.495 8.495 0 0 1-1.666 1.7c-.674.53-1.479.974-2.413 1.334-.935.36-2.007.54-3.218.54-1.746 0-3.332-.337-4.757-1.011a10.904 10.904 0 0 1-3.642-2.758c-1.003-1.164-1.781-2.524-2.332-4.08-.552-1.554-.828-3.213-.828-4.974V10.695c0-.582.127-1.022.38-1.321.252-.299.654-.448 1.206-.448h5.308c.66 0 1.111.11 1.356.333.245.222.368.655.368 1.298v14.96c0 .66.15 1.284.448 1.874.299.59.693 1.11 1.184 1.562.49.452 1.045.809 1.666 1.069.62.26 1.252.39 1.896.39.551 0 1.122-.13 1.712-.39a6.361 6.361 0 0 0 1.631-1.046c.498-.436.908-.95 1.23-1.54.322-.59.482-1.214.482-1.872V10.626c0-.26.05-.52.15-.781.1-.26.249-.46.448-.598.199-.122.387-.206.563-.252.176-.046.38-.07.609-.07h5.194c.658 0 1.133.162 1.424.483.291.322.437.751.437 1.287v25.716c0 .29-.065.559-.195.804s-.31.437-.54.574l.137-.068zm26.681-3.172c-.414.414-.87.858-1.367 1.333-.498.475-1.046.92-1.643 1.333a9.3 9.3 0 0 1-1.93 1.023 6.097 6.097 0 0 1-2.23.402c-2.083 0-4.002-.39-5.757-1.172a13.777 13.777 0 0 1-4.527-3.206c-1.264-1.356-2.252-2.953-2.964-4.792-.713-1.838-1.069-3.814-1.069-5.929 0-2.13.356-4.11 1.069-5.94.712-1.83 1.7-3.424 2.964-4.78a13.635 13.635 0 0 1 4.527-3.194c1.755-.774 3.674-1.161 5.757-1.161.843 0 1.613.123 2.31.368a8.51 8.51 0 0 1 1.907.942c.575.383 1.103.816 1.586 1.298.482.483.938.954 1.367 1.414V1.985c0-.49.15-.903.448-1.24.299-.338.747-.506 1.345-.506h5.17c.2 0 .41.042.632.126.222.085.425.203.61.357.183.153.332.337.447.551.115.215.173.452.173.712v34.357c0 1.18-.62 1.77-1.862 1.77h-4.504c-.306 0-.544-.04-.712-.116a1.13 1.13 0 0 1-.426-.333 2.319 2.319 0 0 1-.31-.551 17.13 17.13 0 0 0-.344-.77l-.667-1.793zm-13.214-11.008a8.39 8.39 0 0 0 .471 2.839c.314.88.762 1.643 1.345 2.286a6.384 6.384 0 0 0 2.102 1.528c.82.376 1.728.563 2.724.563.98 0 1.903-.176 2.769-.528a7.058 7.058 0 0 0 2.263-1.46 7.256 7.256 0 0 0 1.552-2.194c.39-.843.609-1.747.655-2.712v-.322a7.26 7.26 0 0 0-.552-2.803 7.427 7.427 0 0 0-1.528-2.344 7.242 7.242 0 0 0-2.298-1.597 6.977 6.977 0 0 0-2.861-.586c-.996 0-1.904.195-2.724.586-.82.39-1.52.923-2.102 1.597a7.236 7.236 0 0 0-1.345 2.344 8.35 8.35 0 0 0-.47 2.803zm48.72 11.008c-.414.414-.87.858-1.368 1.333-.498.475-1.046.92-1.643 1.333a9.3 9.3 0 0 1-1.93 1.023 6.097 6.097 0 0 1-2.23.402c-2.083 0-4.002-.39-5.756-1.172a13.777 13.777 0 0 1-4.528-3.206c-1.263-1.356-2.252-2.953-2.964-4.792-.712-1.838-1.069-3.814-1.069-5.929 0-2.13.357-4.11 1.069-5.94s1.7-3.424 2.964-4.78a13.635 13.635 0 0 1 4.528-3.194c1.754-.774 3.673-1.161 5.756-1.161.843 0 1.613.123 2.31.368a8.51 8.51 0 0 1 1.907.942c.575.383 1.103.816 1.586 1.298.483.483.938.954 1.367 1.414V1.985c0-.49.15-.903.448-1.24.3-.338.747-.506 1.345-.506h5.17c.2 0 .41.042.632.126.223.085.426.203.61.357.183.153.333.337.448.551.114.215.172.452.172.712v34.357c0 1.18-.62 1.77-1.862 1.77h-4.504c-.306 0-.544-.04-.712-.116a1.13 1.13 0 0 1-.425-.333 2.319 2.319 0 0 1-.31-.551 17.13 17.13 0 0 0-.345-.77l-.667-1.793zm-13.215-11.008a8.39 8.39 0 0 0 .471 2.839c.315.88.763 1.643 1.345 2.286a6.384 6.384 0 0 0 2.103 1.528c.82.376 1.727.563 2.723.563.98 0 1.903-.176 2.769-.528a7.058 7.058 0 0 0 2.264-1.46 7.256 7.256 0 0 0 1.55-2.194c.391-.843.61-1.747.656-2.712v-.322a7.26 7.26 0 0 0-.552-2.803 7.427 7.427 0 0 0-1.528-2.344 7.242 7.242 0 0 0-2.298-1.597 6.977 6.977 0 0 0-2.861-.586c-.996 0-1.904.195-2.723.586-.82.39-1.521.923-2.103 1.597a7.236 7.236 0 0 0-1.345 2.344 8.35 8.35 0 0 0-.47 2.803zM197.61 2.008c0-.49.122-.903.367-1.24.246-.338.667-.506 1.264-.506h5.63c.154 0 .315.042.483.126a1.7 1.7 0 0 1 .471.357c.146.153.268.337.368.551.1.215.15.452.15.712v34.334c0 .582-.165 1.022-.495 1.321-.329.299-.754.448-1.275.448h-5.332c-.597 0-1.018-.15-1.264-.448-.245-.299-.367-.74-.367-1.321V2.008zm38.7 32.61a15.31 15.31 0 0 1-4.55 2.907 13.87 13.87 0 0 1-5.355 1.046c-2.1 0-4.083-.383-5.952-1.15a15.494 15.494 0 0 1-4.918-3.182 15.273 15.273 0 0 1-3.355-4.792c-.828-1.838-1.241-3.837-1.241-5.998 0-1.348.164-2.654.494-3.918a15.45 15.45 0 0 1 1.402-3.55 15.055 15.055 0 0 1 2.206-3.045 13.957 13.957 0 0 1 2.907-2.379 14.327 14.327 0 0 1 3.493-1.54 14.084 14.084 0 0 1 3.975-.551c1.272 0 2.505.169 3.7.506 1.195.337 2.318.812 3.367 1.424 1.05.613 2.01 1.349 2.884 2.207a14.896 14.896 0 0 1 2.252 2.815 13.58 13.58 0 0 1 1.46 3.263c.344 1.157.517 2.348.517 3.573 0 .797-.012 1.448-.035 1.954-.023.505-.142.908-.356 1.206-.215.3-.57.506-1.069.62-.498.116-1.23.173-2.194.173h-16.546c.153.98.463 1.8.93 2.46a5.842 5.842 0 0 0 1.62 1.573c.613.391 1.264.67 1.954.84a8.24 8.24 0 0 0 1.953.252c.552 0 1.118-.058 1.7-.172a12.179 12.179 0 0 0 1.69-.46 9.557 9.557 0 0 0 1.493-.667c.452-.252.816-.517 1.092-.792.245-.2.456-.349.632-.449.176-.1.364-.149.563-.149.2 0 .402.07.61.207a4.8 4.8 0 0 1 .7.597l2.436 2.758c.168.2.276.38.322.54.046.161.069.326.069.494 0 .307-.085.571-.253.793a2.89 2.89 0 0 1-.598.586zm-11.054-19.143c-.598 0-1.176.119-1.735.356a6.547 6.547 0 0 0-1.575.954c-.49.398-.93.85-1.321 1.356a8.315 8.315 0 0 0-.954 1.54h11.743a13.536 13.536 0 0 0-1.045-1.655 7.081 7.081 0 0 0-1.287-1.333 5.558 5.558 0 0 0-1.655-.896c-.62-.215-1.344-.322-2.171-.322z" />
  </g>
  <path
     id="path22"
     d="M 8.4876003,38.273412 C 7.4160266,37.792283 7.3589904,37.432703 7.5497073,32.360524 7.6428165,29.884251 7.6975145,27.833629 7.6712582,27.803587 7.645002,27.773544 6.5472814,27.605351 5.2318791,27.429823 1.8841424,26.983101 0.95092029,26.440128 0.48317397,24.666895 0.13163029,23.334187 -0.01423881,16.363313 0.2429869,13.188699 0.46916592,10.397256 0.8253382,8.2458492 1.2166155,7.3076386 1.5106893,6.6025039 2.3609767,5.6724851 3.0336575,5.3202125 3.6556179,4.9945015 10.791545,3.1840442 14.017308,2.5335485 21.929545,0.93799586 28.508266,0.60576433 34.45629,1.5013611 c 6.107683,0.9196366 8.492423,1.9572574 9.527553,4.1455204 0.716744,1.5151922 0.813955,2.5654815 0.62007,6.6993275 -0.29497,6.289092 -0.92995,10.262149 -1.977743,12.374704 -0.551333,1.111594 -1.943973,2.313438 -3.029397,2.614359 -1.367922,0.379239 -8.793916,0.810243 -15.59729,0.905264 l -6.192413,0.08649 -1.345991,1.523381 c -1.575041,1.782615 -2.852075,3.626398 -4.219662,6.09235 -0.540882,0.975285 -1.175319,1.91345 -1.40986,2.084808 -0.5964,0.435736 -1.6701941,0.548364 -2.3439567,0.245849 z m 2.0836087,-3.124411 c 1.359973,-2.645637 3.117168,-5.093163 5.387485,-7.504012 l 1.164588,-1.236673 h 4.908339 c 7.549611,0 16.37488,-0.557938 17.522301,-1.10777 0.77219,-0.370023 1.534779,-1.465566 1.900437,-2.730184 0.719744,-2.489217 1.256959,-7.585914 1.322704,-12.548861 L 42.814499,7.1954547 42.296913,6.3541238 C 41.451214,4.979448 39.767497,4.283024 35.553093,3.5647253 27.62226,2.2130022 19.620537,2.8770264 8.0170576,5.8498072 3.9234161,6.8985873 3.6877537,6.9767475 3.2912222,7.4171829 2.9097847,7.8408532 2.5462253,9.2723707 2.2701682,11.437589 1.9632604,13.844781 1.9761397,23.33424 2.2875574,24.249982 c 0.2995909,0.880967 0.7267288,1.034506 3.9319345,1.413366 2.1117458,0.249614 2.7153828,0.380418 3.0286575,0.656289 l 0.3912551,0.344542 -0.1828273,4.751553 c -0.100555,2.613355 -0.1422628,4.857262 -0.092684,4.986463 0.1689658,0.440318 0.5287493,0.06686 1.2073158,-1.253194 z"
     style="fill:#ffffff;stroke:#ffffff;stroke-width:0.170576" />
  <path
     id="path24"
     d="m 30.817616,17.513522 c -1.126818,-0.55776 -1.649173,-1.468371 -1.649173,-2.87497 0,-0.927509 0.07702,-1.246107 0.42351,-1.751769 0.586571,-0.856044 1.474384,-1.318553 2.531041,-1.318553 1.052396,0 1.670798,0.220203 2.30588,0.821087 0.707695,0.669585 0.965582,1.269874 0.965582,2.2476 0,2.47352 -2.375221,3.966378 -4.57684,2.876605 z m 2.359356,-1.851475 c 0.4893,-0.4893 0.467747,-1.597741 -0.03795,-1.951948 -0.433923,-0.303932 -1.364299,-0.34868 -1.849592,-0.08896 -0.468508,0.250738 -0.457414,1.498598 0.01786,2.008743 0.451762,0.484908 1.40062,0.501232 1.869688,0.03216 z"
     style="fill:#ffffff;stroke:#ffffff;stroke-width:0.170576" />
  <path
     id="path26"
     d="m 20.907648,17.239607 c -0.844188,-0.430462 -1.250585,-1.077484 -1.334631,-2.124857 -0.147161,-1.833917 1.44607,-3.773954 3.099312,-3.773954 2.281739,0 3.676232,3.039578 2.251471,4.907536 -0.917925,1.203462 -2.725214,1.64954 -4.016152,0.991275 z m 2.375934,-1.918711 c 0.564307,-0.564307 0.386204,-1.65764 -0.332701,-2.042387 -0.752383,-0.402663 -1.941156,1.443155 -1.371504,2.129544 0.306914,0.369809 1.297921,0.319127 1.704205,-0.08716 z"
     style="fill:#ffffff;stroke:#ffffff;stroke-width:0.170576" />
  <path
     id="path28"
     d="m 11.679543,17.351933 c -0.941201,-0.546021 -1.420161,-1.383121 -1.4989,-2.619693 -0.07836,-1.230537 0.292575,-2.149859 1.162917,-2.882203 2.037608,-1.714534 4.775843,-0.250451 4.775843,2.553554 0,1.314501 -0.536075,2.225841 -1.673427,2.844865 -1.018416,0.554292 -1.930534,0.588409 -2.766433,0.103477 z m 2.209996,-1.968753 c 0.466875,-0.593537 0.473068,-1.648505 0.01238,-2.109193 -0.40757,-0.407569 -0.549791,-0.418437 -1.184007,-0.09047 -0.840632,0.434708 -0.996359,1.615843 -0.320422,2.430297 0.316476,0.381331 1.106768,0.259171 1.492049,-0.230633 z"
     style="fill:#ffffff;stroke:#ffffff;stroke-width:0.170576" />
  <path
     id="path30"
     d="m 57.944563,37.802772 c -0.15638,-0.156381 -0.204691,-4.095523 -0.204691,-16.689981 0,-15.7540511 0.01384,-16.4978119 0.311939,-16.7675906 0.270062,-0.2444033 0.808186,-0.2823006 4.008529,-0.2823006 3.469155,0 3.717579,0.020989 4.037741,0.3411514 0.327368,0.3273675 0.341151,0.5685856 0.341151,5.9701488 v 5.628998 h 5.799574 5.799574 V 10.31535 c 0,-5.2936658 0.02162,-5.7074131 0.311938,-5.9701496 0.452693,-0.4096807 7.426508,-0.4242798 8.008316,-0.016765 L 86.73774,4.5939715 V 21.03267 c 0,14.716836 -0.02808,16.466774 -0.268048,16.706745 -0.227693,0.227695 -0.842171,0.268048 -4.081632,0.268048 -3.239461,0 -3.85394,-0.04035 -4.081633,-0.268048 C 78.071812,37.5048 78.03838,36.632519 78.03838,30.745812 v -6.725556 h -5.799574 -5.799574 v 6.711302 c 0,6.285172 -0.01981,6.729228 -0.311938,6.993604 -0.270782,0.245054 -0.817669,0.282301 -4.14499,0.282301 -2.753827,0 -3.890682,-0.05763 -4.037741,-0.204691 z"
     style="fill:#ffffff;stroke:#ffffff;stroke-width:0.170576" />
  <path
     id="path32"
     d="m 102.99741,38.331852 c -5.153513,-0.86043 -8.898368,-5.397621 -9.432088,-11.427731 -0.215515,-2.434941 -0.222619,-15.692819 -0.0089,-16.615208 0.284614,-1.2283857 0.452227,-1.2793181 4.210104,-1.2793181 3.292284,0 3.317954,0.00288 3.733764,0.4186858 l 0.41869,0.4186858 v 8.1650005 c 0,9.247395 -0.0132,9.14025 1.30309,10.604253 2.05197,2.282284 5.15684,2.438915 7.44093,0.375372 0.36109,-0.326215 0.86336,-0.944957 1.11616,-1.37498 l 0.45965,-0.781857 0.0853,-8.501089 0.0853,-8.5010896 0.48993,-0.4212412 0.48993,-0.4212411 3.38632,0.052394 c 3.2618,0.050468 3.40059,0.066679 3.77446,0.4408769 l 0.38815,0.3884826 0.0457,13.3427134 c 0.0337,9.819324 -0.006,13.468746 -0.15196,13.819987 -0.3351,0.809019 -0.90706,0.972915 -3.39523,0.972915 -2.21528,0 -2.24405,-0.005 -2.70777,-0.469083 -0.36226,-0.362549 -0.57678,-0.90491 -0.94458,-2.38806 -0.26172,-1.055437 -0.49455,-1.918977 -0.51738,-1.918977 -0.0228,0 -0.32097,0.452746 -0.66252,1.006102 -1.96471,3.18308 -5.65231,4.75469 -9.60705,4.094407 z"
     style="fill:#ffffff;stroke:#ffffff;stroke-width:0.170576" />
  <path
     id="path34"
     d="m 137.05757,38.263151 c -5.21748,-1.162404 -9.07794,-4.869551 -10.66859,-10.244881 -0.6413,-2.167172 -0.76342,-5.45891 -0.2876,-7.75239 1.12397,-5.417662 4.72238,-9.546166 9.64288,-11.0634067 4.2275,-1.3035532 7.20218,-0.6778451 10.1504,2.1350787 0.72169,0.688569 1.33135,1.252436 1.35481,1.253038 0.0234,5.97e-4 0.0426,-2.527674 0.0426,-5.6183914 v -5.619486 l 0.4113,-0.47859512 0.4113,-0.47859509 3.07981,-0.0533479 c 2.51965,-0.0436449 3.18196,-0.004874 3.64145,0.2131698 1.14131,0.54158601 1.065,-0.6776977 1.12161,17.92120171 0.0283,9.287846 0.004,17.28799 -0.0544,17.778095 -0.19352,1.63057 -0.25705,1.659273 -3.80891,1.720827 -3.63963,0.06307 -3.45421,0.152931 -4.30475,-2.08617 -0.55369,-1.457656 -0.55959,-1.465146 -0.91117,-1.156899 -0.19462,0.170641 -0.88615,0.788247 -1.53673,1.372461 -0.66037,0.59301 -1.74603,1.340537 -2.45781,1.692317 -1.18454,0.585431 -1.397,0.633052 -2.99624,0.671551 -1.03385,0.02489 -2.16409,-0.05721 -2.83003,-0.205577 z m 5.15152,-7.608985 c 3.69273,-0.772595 6.186,-4.433078 5.59853,-8.219442 -0.59759,-3.851524 -3.74623,-6.429608 -7.60518,-6.227065 -2.51726,0.132122 -4.46275,1.456993 -5.54104,3.773431 -0.98539,2.11687 -1.03788,4.47476 -0.1523,6.841692 0.3834,1.024715 1.54112,2.427183 2.48534,3.010741 1.44973,0.895987 3.39291,1.201788 5.21465,0.820643 z"
     style="fill:#ffffff;stroke:#ffffff;stroke-width:0.170576" />
  <path
     id="path36"
     d="m 172.53731,38.264722 c -5.36505,-1.18768 -9.45471,-5.308052 -10.86583,-10.947424 -0.42764,-1.709015 -0.41765,-5.843584 0.0183,-7.561434 1.70762,-6.729239 6.93655,-11.0706785 13.40619,-11.1307866 2.67523,-0.024855 4.17797,0.6456141 6.52452,2.9110086 l 1.15139,1.111568 V 7.0001835 1.3527126 l 0.4113,-0.47859512 0.41131,-0.47859509 3.15909,-0.0530688 c 2.65675,-0.04463 3.24446,-0.008923 3.69595,0.22454886 1.0655,0.55099055 1.02171,-0.24955858 1.02171,18.67713355 0,18.446397 0.0141,18.128734 -0.82723,18.579021 -0.2077,0.111158 -1.4879,0.184306 -3.22564,0.184306 -3.40076,0 -3.27392,0.06613 -4.14423,-2.160536 l -0.54444,-1.392947 -1.52626,1.346996 c -0.94733,0.836065 -2.01718,1.589625 -2.82052,1.986656 -1.20624,0.596155 -1.41133,0.642478 -3.01555,0.681096 -1.02724,0.02473 -2.16836,-0.05753 -2.83004,-0.204006 z m 5.15152,-7.611791 c 3.72551,-0.784537 6.22245,-4.412025 5.63764,-8.190226 -0.26995,-1.744041 -1.01721,-3.144505 -2.33619,-4.378347 -1.35174,-1.264482 -2.52142,-1.754664 -4.46002,-1.869072 -2.36094,-0.139332 -4.21983,0.676719 -5.57199,2.446092 -2.16864,2.837798 -2.02511,7.539216 0.30903,10.122839 1.51675,1.67886 3.95444,2.388247 6.42153,1.868714 z"
     style="fill:#ffffff;stroke:#ffffff;stroke-width:0.170576" />
  <path
     id="path38"
     d="m 198.17582,37.595841 -0.47859,-0.411621 -0.0522,-17.115031 c -0.0287,-9.413267 -0.004,-17.5160265 0.0544,-18.0061321 0.1964,-1.64292702 0.23452,-1.65939077 3.98297,-1.72043679 3.5437,-0.0577117 3.75424,-0.0148814 4.29624,0.87402329 0.32239,0.5287295 0.3314,1.014834 0.33202,17.9050406 7e-4,18.907415 0.0288,18.347802 -0.94038,18.716288 -0.24519,0.09322 -1.85656,0.169491 -3.58083,0.169491 -3.068,0 -3.14526,-0.0088 -3.61363,-0.411622 z"
     style="fill:#ffffff;stroke:#ffffff;stroke-width:0.170576" />
  <path
     id="path40"
     d="m 224.13646,38.329996 c -6.29235,-0.907422 -11.5725,-5.846758 -12.81727,-11.989977 -0.37166,-1.834224 -0.24102,-5.32361 0.26224,-7.004464 1.62233,-5.418406 5.76344,-9.3690923 11.01985,-10.5131204 1.58027,-0.3439362 4.51902,-0.2651349 6.14072,0.1646608 6.69139,1.7733956 11.32142,8.1077036 10.73907,14.6920086 -0.13574,1.534615 -0.37917,1.972379 -1.22786,2.20807 -0.4088,0.113527 -3.96992,0.178433 -9.82327,0.179038 l -9.18199,9.52e-4 0.11164,0.554371 c 0.34892,1.732517 1.71202,3.380005 3.45787,4.17928 1.39152,0.63706 3.72393,0.734049 5.55725,0.231086 1.53878,-0.422159 2.38063,-0.822818 3.45997,-1.646693 1.13904,-0.869452 1.47953,-0.800355 2.77202,0.562553 2.74402,2.893517 2.91321,3.380747 1.59799,4.601767 -3.2427,3.010445 -7.70805,4.409251 -12.06823,3.780468 z m 7.04716,-19.284885 c -0.59807,-1.076955 -1.88519,-2.405218 -2.82789,-2.918301 -0.98066,-0.533745 -2.86212,-0.847221 -3.90397,-0.650456 -1.02125,0.192876 -2.07085,0.780512 -3.02275,1.692338 -0.77926,0.74646 -1.81281,2.143284 -1.81281,2.449991 0,0.07545 2.69148,0.137181 5.98107,0.137181 h 5.98106 z"
     style="fill:#ffffff;stroke:#ffffff;stroke-width:0.170576" />
</svg>
